<svg height="496pt" viewBox="0 0 496 496" width="496pt" xmlns="http://www.w3.org/2000/svg"><path d="m232 80.960938v79.039062c0-6.640625-2.71875-12.640625-7.039062-16.960938-4.320313-4.320312-10.320313-7.039062-16.960938-7.039062h-8v-16h-.238281c-12.882813 0-25.683594-2.160156-37.839844-6.238281-12.082031-4-23.523437-10-33.921875-17.761719l-2.800781 4.160156c-4.160157 6.238282-9.679688 11.199219-16.078125 14.558594-6.402344 3.441406-13.601563 5.28125-21.121094 5.28125v16h-8c-13.28125 0-24 10.71875-24 24v-72.800781c0-43.757813 35.441406-79.199219 79.199219-79.199219 10.480469 0 20.800781 2.078125 30.242187 6 9.597656 3.921875 18.320313 9.761719 25.757813 17.199219l8.800781 8.800781c9.441406 2.398438 17.441406 7.761719 23.039062 14.960938 5.679688 7.277343 8.960938 16.320312 8.960938 26zm0 0" fill="#fcd770"/><g fill="#f0d0b4"><path d="m112 240v-26.078125c22.558594 9.519531 27.199219 10.078125 32 10.078125 11.921875 0 22.960938-3.679688 32-10.078125v26.078125l-32 32zm0 0"/><path d="m200 136v32c0 5.601562-.800781 10.960938-2.320312 16-3.679688 12.320312-11.359376 22.800781-21.679688 29.921875-9.039062 6.398437-20.078125 10.078125-32 10.078125-4.800781 0-9.441406-.558594-32-10.078125-2.71875-1.84375-5.28125-4-7.601562-6.320313-6.476563-6.480468-11.4375-14.5625-14.078126-23.601562-1.519531-5.039062-2.320312-10.398438-2.320312-16v-48c7.519531 0 14.71875-1.839844 21.121094-5.28125 6.398437-3.359375 11.917968-8.320312 16.078125-14.558594l2.800781-4.160156c10.398438 7.761719 21.839844 13.761719 33.921875 17.761719 12.15625 4.078125 24.957031 6.238281 37.839844 6.238281h.238281zm0 0"/><path d="m90.320312 184h-10.320312c-6.640625 0-12.640625-2.71875-16.960938-7.039062-4.320312-4.320313-7.039062-10.320313-7.039062-16.960938 0-13.28125 10.71875-24 24-24h8v32c0 5.601562.800781 10.960938 2.320312 16zm0 0"/><path d="m224.960938 143.039062c4.320312 4.320313 7.039062 10.320313 7.039062 16.960938 0 13.28125-10.71875 24-24 24h-10.320312c1.519531-5.039062 2.320312-10.398438 2.320312-16v-32h8c6.640625 0 12.640625 2.71875 16.960938 7.039062zm0 0"/></g><path d="m248 336v56l-16-8h-64l-16-64 23.121094-23.121094 8.878906 7.121094 16-56 .320312-.960938 44.960938 12.960938c9.117188 2.640625 16.878906 7.761719 22.796875 14.480469l-60.316406 40.078125c-4.882813 3.441406-7.761719 8.960937-7.761719 14.960937v4.242188c0 5.039062 2.078125 9.597656 5.359375 12.878906s7.839844 5.359375 12.878906 5.359375c3.761719 0 7.441407-1.199219 10.480469-3.359375l19.203125-12.800781zm0 0" fill="#e6e9ed"/><path d="m80 384c-6.640625 0-12.640625 2.71875-16.960938 7.039062-4.320312 4.320313-7.039062 10.320313-7.039062 16.960938h-48v-101.921875c0-21.359375 14.160156-40.15625 34.71875-46.078125l44.960938-12.960938.320312.960938 16 56 8.878906-7.121094 23.121094 23.121094-16 64zm0 0" fill="#e6e9ed"/><path d="m175.121094 296.878906-31.121094-24.878906 32-32 24.320312 7.039062-.320312.960938-16 56zm0 0" fill="#aab2bd"/><path d="m112.878906 296.878906-8.878906 7.121094-16-56-.320312-.960938 24.320312-7.039062 32 32zm0 0" fill="#aab2bd"/><path d="m152 320 16 64h-48l16-64zm0 0" fill="#ff826e"/><path d="m175.121094 296.878906-23.121094 23.121094h-16l-23.121094-23.121094 31.121094-24.878906zm0 0" fill="#ff826e"/><path d="m488 329.519531v4.242188c0 10.078125-8.160156 18.238281-18.238281 18.238281-3.761719 0-7.441407-1.199219-10.480469-3.359375l-19.203125-12.800781-36.957031-24.558594-59.121094-39.28125-96.078125 63.839844-19.203125 12.800781c-3.039062 2.160156-6.71875 3.359375-10.480469 3.359375-5.039062 0-9.597656-2.078125-12.878906-5.359375s-5.359375-7.839844-5.359375-12.878906v-4.242188c0-6 2.878906-11.519531 7.761719-14.960937l60.316406-40.078125 75.921875-50.480469 136.238281 90.558594c4.882813 3.441406 7.761719 8.960937 7.761719 14.960937zm0 0" fill="#ff826e"/><path d="m403.121094 311.28125-59.121094-39.28125-96.078125 63.839844.078125.160156v56l32 16v-48h128v96h-128v-48l-32 16v64h192v-152l.078125-.160156zm0 0" fill="#e6e9ed"/><path d="m104 384v48h-24c-13.28125 0-24-10.71875-24-24 0-6.640625 2.71875-12.640625 7.039062-16.960938 4.320313-4.320312 10.320313-7.039062 16.960938-7.039062zm0 0" fill="#aab2bd"/><path d="m120 384h112v48h-128v-48zm0 0" fill="#fcd770"/><path d="m280 408-48 24v-48zm0 0" fill="#969faa"/><path d="m370.640625 360h37.359375v96h-128v-96zm0 0" fill="#b4dd7f"/><path d="m484.65625 307.894531-140.65625-93.503906-74.9375 49.816406c-6.207031-5.496093-13.519531-9.589843-21.542969-11.902343l-63.519531-18.320313v-16.105469c8.457031-6.789062 15.144531-15.679687 19.289062-25.878906h4.710938c17.648438 0 32-14.351562 32-32v-79.015625c0-22.328125-14.625-41.800781-35.832031-48.136719l-7.3125-7.3125c-16.472657-16.464844-38.367188-25.535156-61.664063-25.535156-48.070312 0-87.191406 39.121094-87.191406 87.191406v72.808594c0 17.648438 14.351562 32 32 32h4.710938c4.144531 10.199219 10.832031 19.089844 19.289062 25.878906v16.105469l-63.519531 18.320313c-23.832031 6.878906-40.480469 29-40.480469 53.808593v109.886719h49.136719c3.574219 13.769531 15.992187 24 30.863281 24h153.886719l6.113281-3.054688v59.054688h208v-145.222656l6.761719 4.496094c4.421875 3.09375 9.621093 4.726562 15.023437 4.726562 14.453125 0 26.214844-11.761719 26.214844-26.214844v-4.296875c0-8.558593-4.183594-16.59375-11.34375-21.59375zm-229.609375-34.367187-51.863281 34.480468c-7 4.886719-11.183594 12.921876-11.183594 21.480469v4.296875c0 14.453125 11.761719 26.214844 26.214844 26.214844 5.449218 0 10.671875-1.65625 14.9375-4.671875l6.847656-4.550781v28.277344l-6.113281-3.054688h-59.648438l-13.382812-53.542969 14.847656-14.847656 12.6875 10.152344 17.386719-60.851563 37.320312 10.769532c4.316406 1.25 8.316406 3.28125 11.949219 5.847656zm-31.046875 118.472656v32h-112v-32zm-80-109.753906 19.136719 15.304687-14.449219 14.449219h-9.375l-14.449219-14.449219zm-1.753906 45.753906h3.515625l12 48h-27.523438zm97.753906 91.054688v-22.109376l22.113281 11.054688zm-49.601562-166.574219-10.789063 37.765625-23.632813-18.902344 22.34375-22.34375zm17.601562-76.480469h-.550781c.328125-2.625.550781-5.289062.550781-8v-24c8.824219 0 16 7.175781 16 16s-7.175781 16-16 16zm-72.808594-160c19.015625 0 36.898438 7.40625 50.34375 20.847656l10.367188 10.375 2.160156.53125c15.273438 3.820313 25.9375 17.484375 25.9375 33.230469v51.464844c-4.726562-2.753907-10.144531-4.449219-16-4.449219v-8l-.207031-7.976562-7.976563-.023438c-24.007812-.0625-47.808594-8.023438-67.015625-22.40625l-6.746093-5.050781-7.488282 11.152343c-6.847656 10.207032-18.277344 16.304688-30.566406 16.304688h-8v16c-5.855469 0-11.273438 1.695312-16 4.449219v-45.257813c0-39.253906 31.9375-71.191406 71.191406-71.191406zm-55.191406 160c-8.824219 0-16-7.175781-16-16s7.175781-16 16-16v24c0 2.710938.222656 5.375.550781 8zm16-8v-40.609375c13.488281-2.054687 25.695312-9.253906 34.03125-20.222656 18.464844 12.007812 39.976562 19.152343 61.96875 20.566406v40.265625c0 26.472656-21.527344 48-48 48s-48-21.527344-48-48zm48 64c8.488281 0 16.585938-1.695312 24-4.710938v9.398438l-24 24-24-24v-9.398438c7.414062 3.015626 15.511719 4.710938 24 4.710938zm-34.320312 16.992188 22.34375 22.34375-23.632813 18.902343-10.789063-37.757812zm-60.542969 151.007812h-33.136719v-93.886719c0-17.714843 11.886719-33.511719 28.910156-38.433593l37.3125-10.769532 17.386719 60.84375 12.6875-10.152344 14.847656 14.847657-13.382812 53.550781h-33.761719v-32h-16v36.449219c-7.273438 4.246093-12.695312 11.207031-14.863281 19.550781zm14.863281 8c0-8.824219 7.175781-16 16-16h16v32h-16c-8.824219 0-16-7.175781-16-16zm368 72h-176v-51.054688l41.886719-20.945312-41.886719-20.945312v-46.917969l88-58.527344 88 58.527344zm48-146.214844c0 5.628906-4.585938 10.214844-10.214844 10.214844-2.121094 0-4.160156-.648438-5.898437-1.871094l-119.886719-79.738281-119.878906 79.738281c-1.746094 1.222656-3.785156 1.871094-5.90625 1.871094-5.628906 0-10.214844-4.585938-10.214844-10.214844v-4.296875c0-3.328125 1.625-6.464843 4.199219-8.257812l131.800781-87.621094 131.640625 87.511719c2.734375 1.902344 4.359375 5.039062 4.359375 8.367187zm0 0"/><path d="m272 352v32h16v-16h67.71875l-28.957031 43.449219-17.105469-17.105469-11.3125 11.3125 30.894531 30.894531 45.707031-68.550781h25.054688v80h-112v-16h-16v32h144v-112h-30.382812l13.039062-19.558594-13.3125-8.882812-18.960938 28.441406zm0 0"/></svg>